<?xml version="1.0" standalone="no"?>
<!DOCTYPE svg PUBLIC "-//W3C//DTD SVG 20010904//EN"
 "http://www.w3.org/TR/2001/REC-SVG-20010904/DTD/svg10.dtd">
<svg version="1.0" xmlns="http://www.w3.org/2000/svg"
 width="300.000000pt" height="300.000000pt" viewBox="0 0 300.000000 300.000000"
 preserveAspectRatio="xMidYMid meet">

<g transform="translate(0.000000,300.000000) scale(0.100000,-0.100000)"
fill="#000000" stroke="none">
<path d="M476 2795 c-74 -30 -122 -68 -163 -129 -48 -70 -63 -133 -63 -255 0
-89 4 -110 20 -131 l19 -25 198 -2 198 -2 5 -913 c5 -905 5 -913 26 -958 34
-72 88 -126 162 -162 l67 -33 776 -3 c772 -2 777 -2 834 19 86 32 154 92 195
173 l35 69 3 1025 c3 1130 5 1095 -59 1194 -39 60 -94 104 -167 134 l-57 24
-985 0 -985 0 -59 -25z m2054 -187 c18 -13 43 -36 54 -51 21 -28 21 -29 21
-1060 0 -1017 0 -1032 -20 -1058 -11 -15 -35 -37 -54 -50 l-35 -24 -725 -3
c-505 -2 -742 0 -777 8 -59 13 -109 57 -124 111 -6 21 -10 413 -10 1047 0 988
0 1014 -20 1051 -11 22 -25 41 -32 44 -7 3 370 6 838 6 l851 1 33 -22z"/>
<path d="M1175 1248 c-58 -31 -61 -113 -6 -155 22 -17 1132 -18 1164 -1 56 29
64 93 18 139 l-29 29 -564 0 c-388 -1 -569 -4 -583 -12z"/>
<path d="M1160 862 c-13 -11 -23 -33 -27 -59 -5 -37 -2 -46 25 -73 l30 -30
407 0 406 0 24 25 c35 34 35 96 0 130 l-24 25 -409 0 c-376 0 -412 -1 -432
-18z"/>
</g>
</svg>
